<?xml version="1.0" encoding="utf-8"?>
<!-- Generator: Adobe Illustrator 27.0.0, SVG Export Plug-In . SVG Version: 6.00 Build 0)  -->
<svg version="1.1" id="Layer_1" xmlns="http://www.w3.org/2000/svg" xmlns:xlink="http://www.w3.org/1999/xlink" x="0px" y="0px"
	 viewBox="0 0 24 24" style="enable-background:new 0 0 24 24;" xml:space="preserve">
<style type="text/css">
	.st0{fill:#0045A1;}
</style>
<path class="st0" d="M4.3,19.5c-0.5,0-0.9-0.2-1.3-0.5s-0.5-0.8-0.5-1.3V6.3C2.5,5.8,2.7,5.4,3,5s0.8-0.5,1.3-0.5h15.4
	c0.5,0,0.9,0.2,1.3,0.5s0.5,0.8,0.5,1.3v5.3H4v6.1c0,0.1,0,0.1,0.1,0.2C4.2,18,4.2,18,4.3,18h9.3v1.5C13.6,19.5,4.3,19.5,4.3,19.5z
	 M4,8.4h16V6.3c0-0.1,0-0.1-0.1-0.2C19.8,6,19.8,6,19.7,6H4.3C4.2,6,4.2,6,4.1,6.1C4,6.2,4,6.2,4,6.3C4,6.3,4,8.4,4,8.4z M19.2,21.8
	v-3h-3v-1.5h3v-3h1.5v3h3v1.5h-3v3H19.2z M4,18V6V18z"/>
</svg>
