<?xml version="1.0" encoding="utf-8"?>
<!-- Generator: Adobe Illustrator 27.0.0, SVG Export Plug-In . SVG Version: 6.00 Build 0)  -->
<svg version="1.1" id="Layer_1" xmlns="http://www.w3.org/2000/svg" xmlns:xlink="http://www.w3.org/1999/xlink" x="0px" y="0px"
	 viewBox="0 0 24 24" style="enable-background:new 0 0 24 24;" xml:space="preserve">
<style type="text/css">
	.st0{fill:#0045A1;}
</style>
<path class="st0" d="M5.3,21.5c-0.5,0-0.9-0.2-1.3-0.5s-0.5-0.8-0.5-1.3V6.3C3.5,5.8,3.7,5.4,4,5s0.8-0.5,1.3-0.5h1.4V2.4h1.5v2.1
	h7.6V2.4h1.5v2.1h1.4c0.5,0,0.9,0.2,1.3,0.5s0.5,0.8,0.5,1.3v13.4c0,0.5-0.2,0.9-0.5,1.3s-0.8,0.5-1.3,0.5H5.3z M5.3,20h13.4
	c0.1,0,0.1,0,0.2-0.1c0.1-0.1,0.1-0.1,0.1-0.2v-9.4H5v9.4c0,0.1,0,0.1,0.1,0.2C5.2,20,5.2,20,5.3,20z M5,8.8h14V6.3
	c0-0.1,0-0.1-0.1-0.2C18.8,6,18.8,6,18.7,6H5.3C5.2,6,5.2,6,5.1,6.1C5,6.2,5,6.2,5,6.3C5,6.3,5,8.8,5,8.8z M5,8.8V6V8.8z M12,14.1
	c-0.2,0-0.5-0.1-0.6-0.3c-0.2-0.2-0.3-0.4-0.3-0.6c0-0.2,0.1-0.5,0.3-0.6c0.2-0.2,0.4-0.3,0.6-0.3c0.2,0,0.5,0.1,0.6,0.3
	c0.2,0.2,0.3,0.4,0.3,0.6c0,0.2-0.1,0.5-0.3,0.6C12.5,14,12.2,14.1,12,14.1z M8,14.1c-0.2,0-0.5-0.1-0.6-0.3
	c-0.2-0.2-0.3-0.4-0.3-0.6c0-0.2,0.1-0.5,0.3-0.6c0.2-0.2,0.4-0.3,0.6-0.3c0.2,0,0.5,0.1,0.6,0.3c0.2,0.2,0.3,0.4,0.3,0.6
	c0,0.2-0.1,0.5-0.3,0.6C8.5,14,8.2,14.1,8,14.1z M16,14.1c-0.2,0-0.5-0.1-0.6-0.3c-0.2-0.2-0.3-0.4-0.3-0.6c0-0.2,0.1-0.5,0.3-0.6
	c0.2-0.2,0.4-0.3,0.6-0.3c0.2,0,0.5,0.1,0.6,0.3c0.2,0.2,0.3,0.4,0.3,0.6c0,0.2-0.1,0.5-0.3,0.6C16.5,14,16.2,14.1,16,14.1z M12,18
	c-0.2,0-0.5-0.1-0.6-0.3c-0.2-0.2-0.3-0.4-0.3-0.6c0-0.2,0.1-0.5,0.3-0.6c0.2-0.2,0.4-0.3,0.6-0.3c0.2,0,0.5,0.1,0.6,0.3
	c0.2,0.2,0.3,0.4,0.3,0.6c0,0.2-0.1,0.5-0.3,0.6C12.5,17.9,12.2,18,12,18z M8,18c-0.2,0-0.5-0.1-0.6-0.3c-0.2-0.2-0.3-0.4-0.3-0.6
	c0-0.2,0.1-0.5,0.3-0.6c0.2-0.2,0.4-0.3,0.6-0.3c0.2,0,0.5,0.1,0.6,0.3c0.2,0.2,0.3,0.4,0.3,0.6c0,0.2-0.1,0.5-0.3,0.6
	C8.5,17.9,8.2,18,8,18z M16,18c-0.2,0-0.5-0.1-0.6-0.3c-0.2-0.2-0.3-0.4-0.3-0.6c0-0.2,0.1-0.5,0.3-0.6c0.2-0.2,0.4-0.3,0.6-0.3
	s0.5,0.1,0.6,0.3c0.2,0.2,0.3,0.4,0.3,0.6c0,0.2-0.1,0.5-0.3,0.6C16.5,17.9,16.2,18,16,18z"/>
</svg>
