<?xml version="1.0" encoding="utf-8"?>
<!-- Generator: Adobe Illustrator 27.0.0, SVG Export Plug-In . SVG Version: 6.00 Build 0)  -->
<svg version="1.1" id="Layer_1" xmlns="http://www.w3.org/2000/svg" xmlns:xlink="http://www.w3.org/1999/xlink" x="0px" y="0px"
	 viewBox="0 0 24 24" style="enable-background:new 0 0 24 24;" xml:space="preserve">
<style type="text/css">
	.st0{fill:#0045A1;}
</style>
<path class="st0" d="M8,13.9c-0.2,0-0.4-0.1-0.5-0.2c-0.2-0.2-0.2-0.3-0.2-0.5c0-0.2,0.1-0.4,0.2-0.5c0.2-0.2,0.3-0.2,0.5-0.2
	s0.4,0.1,0.5,0.2c0.2,0.2,0.2,0.3,0.2,0.5c0,0.2-0.1,0.4-0.2,0.5C8.4,13.8,8.2,13.9,8,13.9z M12,13.9c-0.2,0-0.4-0.1-0.5-0.2
	c-0.2-0.2-0.2-0.3-0.2-0.5c0-0.2,0.1-0.4,0.2-0.5c0.2-0.2,0.3-0.2,0.5-0.2s0.4,0.1,0.5,0.2c0.2,0.2,0.2,0.3,0.2,0.5
	c0,0.2-0.1,0.4-0.2,0.5C12.4,13.8,12.2,13.9,12,13.9z M16,13.9c-0.2,0-0.4-0.1-0.5-0.2c-0.2-0.2-0.2-0.3-0.2-0.5
	c0-0.2,0.1-0.4,0.2-0.5c0.2-0.2,0.3-0.2,0.5-0.2c0.2,0,0.4,0.1,0.5,0.2c0.2,0.2,0.2,0.3,0.2,0.5c0,0.2-0.1,0.4-0.2,0.5
	C16.4,13.8,16.2,13.9,16,13.9z M5.6,21c-0.5,0-0.8-0.2-1.2-0.5C4.2,20.2,4,19.8,4,19.4V6.6c0-0.5,0.2-0.8,0.5-1.2S5.2,5,5.6,5h1.8
	V2.8h1.1V5h7.2V2.8h1V5h1.8c0.5,0,0.8,0.2,1.2,0.5S20,6.2,20,6.6v12.8c0,0.5-0.2,0.8-0.5,1.2c-0.3,0.3-0.7,0.5-1.2,0.5H5.6z M5.6,20
	h12.8c0.2,0,0.3-0.1,0.4-0.2c0.1-0.1,0.2-0.3,0.2-0.4v-8.8H5v8.8c0,0.2,0.1,0.3,0.2,0.4S5.5,20,5.6,20z M5,9.6h14v-3
	c0-0.2-0.1-0.3-0.2-0.4C18.7,6.1,18.5,6,18.4,6H5.6C5.5,6,5.3,6.1,5.2,6.2C5.1,6.3,5,6.5,5,6.6V9.6z M5,9.6V6V9.6z"/>
</svg>
