<?xml version="1.0" encoding="utf-8"?>
<!-- Generator: Adobe Illustrator 27.0.0, SVG Export Plug-In . SVG Version: 6.00 Build 0)  -->
<svg version="1.1" id="Layer_1" xmlns="http://www.w3.org/2000/svg" xmlns:xlink="http://www.w3.org/1999/xlink" x="0px" y="0px"
	 viewBox="0 0 24 24" style="enable-background:new 0 0 24 24;" xml:space="preserve">
<style type="text/css">
	.st0{fill:#0045A1;}
</style>
<path class="st0" d="M11.8,20c0.1,0,0.2,0,0.3-0.1c0.1,0,0.2-0.1,0.2-0.2l8-8c0.2-0.2,0.4-0.5,0.5-0.7c0.1-0.3,0.2-0.5,0.2-0.8
	c0-0.3-0.1-0.6-0.2-0.8c-0.1-0.3-0.3-0.5-0.5-0.7l-4-4c-0.2-0.2-0.4-0.4-0.7-0.5C15.4,4,15.1,4,14.8,4C14.5,4,14.3,4,14,4.1
	c-0.3,0.1-0.5,0.3-0.7,0.5l-0.6,0.6l1.8,1.9c0.2,0.2,0.4,0.5,0.5,0.7c0.1,0.3,0.2,0.6,0.2,0.9c0,0.6-0.2,1.1-0.6,1.5
	c-0.4,0.4-0.9,0.6-1.5,0.6c-0.3,0-0.6,0-0.9-0.1c-0.3-0.1-0.5-0.3-0.7-0.5L9.6,8.3l-4.3,4.3c-0.1,0.1-0.1,0.2-0.2,0.3
	C5,13,5,13.1,5,13.2c0,0.2,0.1,0.3,0.2,0.5s0.3,0.2,0.5,0.2c0.1,0,0.2,0,0.3-0.1c0.1,0,0.2-0.1,0.2-0.2l3.3-3.3l1.1,1.1l-3.3,3.3
	c-0.1,0.1-0.1,0.2-0.2,0.3c0,0.1-0.1,0.2-0.1,0.3c0,0.2,0.1,0.3,0.2,0.5s0.3,0.2,0.5,0.2c0.1,0,0.2,0,0.3-0.1c0.1,0,0.2-0.1,0.2-0.2
	l3.4-3.4l1.1,1.1l-3.4,3.4c-0.1,0.1-0.1,0.1-0.2,0.2c0,0.1-0.1,0.2-0.1,0.3c0,0.2,0.1,0.3,0.2,0.5c0.1,0.1,0.3,0.2,0.5,0.2
	c0.1,0,0.2,0,0.3-0.1c0.1,0,0.2-0.1,0.3-0.2l3.4-3.4l1.1,1.1l-3.4,3.4c-0.1,0.1-0.1,0.2-0.2,0.3s-0.1,0.2-0.1,0.3
	c0,0.2,0.1,0.3,0.2,0.5C11.5,19.9,11.6,20,11.8,20z M11.8,21.5c-0.6,0-1.1-0.2-1.5-0.6c-0.4-0.4-0.6-0.9-0.7-1.5
	c-0.6,0-1-0.2-1.4-0.6c-0.4-0.4-0.6-0.8-0.6-1.4c-0.6,0-1.1-0.2-1.4-0.6c-0.4-0.4-0.6-0.8-0.6-1.4c-0.6,0-1.1-0.3-1.5-0.6
	c-0.4-0.4-0.6-0.9-0.6-1.5c0-0.3,0.1-0.6,0.2-0.9c0.1-0.3,0.3-0.5,0.5-0.7l5.4-5.4l2.9,2.9c0.1,0.1,0.1,0.1,0.2,0.2
	c0.1,0,0.2,0.1,0.3,0.1c0.2,0,0.3-0.1,0.5-0.2c0.1-0.1,0.2-0.3,0.2-0.5c0-0.1,0-0.2-0.1-0.3c0-0.1-0.1-0.2-0.2-0.2L10,4.6
	C9.8,4.4,9.5,4.3,9.3,4.1C9,4,8.8,4,8.5,4C8.2,4,7.9,4,7.7,4.1C7.4,4.3,7.2,4.4,7,4.6L3.7,7.9C3.5,8.1,3.3,8.3,3.2,8.6
	C3.1,8.8,3,9.1,3,9.3C3,9.6,3,9.8,3,10c0,0.2,0.1,0.4,0.2,0.6l-1.1,1.1c-0.2-0.3-0.4-0.7-0.5-1.1c-0.1-0.4-0.2-0.8-0.1-1.2
	c0-0.5,0.1-0.9,0.3-1.3s0.4-0.8,0.8-1.1l3.3-3.3C6.2,3.2,6.7,3,7.1,2.8C7.5,2.6,8,2.5,8.5,2.5c0.5,0,0.9,0.1,1.4,0.3
	c0.4,0.2,0.8,0.5,1.2,0.8l0.6,0.6l0.6-0.6C12.6,3.2,13,3,13.4,2.8c0.4-0.2,0.9-0.3,1.4-0.3c0.5,0,0.9,0.1,1.4,0.3
	C16.6,3,17,3.2,17.4,3.6l4,4c0.4,0.4,0.6,0.8,0.8,1.2c0.2,0.5,0.3,0.9,0.3,1.4c0,0.5-0.1,0.9-0.3,1.4c-0.2,0.4-0.5,0.8-0.8,1.2l-8,8
	c-0.2,0.2-0.5,0.4-0.7,0.5C12.4,21.4,12.1,21.5,11.8,21.5z"/>
</svg>
