<?xml version="1.0" encoding="UTF-8"?>
<svg id="Layer_1" xmlns="http://www.w3.org/2000/svg" version="1.1" viewBox="0 0 24 24">
  <!-- Generator: Adobe Illustrator 29.1.0, SVG Export Plug-In . SVG Version: 2.1.0 Build 142)  -->
  <defs>
    <style>
      .st0 {
        fill: #fff;
      }
    </style>
  </defs>
  <path class="st0" d="M15.5,14.6c0,.5-.4.9-.9.9h-5.3c-.5,0-.9-.4-.9-.9s.4-.9.9-.9h5.3c.5,0,.9.4.9.9ZM9.3,10.2h2.5c.4,0,.8-.4.8-.9s-.4-.9-.8-.9h-2.5c-.4,0-.8.4-.8.9s.4.9.8.9ZM24,12c0,6.6-5.4,12-12,12S0,18.6,0,12,5.4,0,12,0s12,5.4,12,12ZM19,11c0-.4-.3-.7-.7-.7h-1.1c-.6,0-.7-.4-.7-1,0-2.4-1.9-4.3-4.3-4.3h-3c-2.4,0-4.3,1.9-4.3,4.3v5.5c0,2.4,1.9,4.3,4.3,4.3h5.5c2.4,0,4.3-1.9,4.3-4.3v-3.8Z"/>
</svg>