<?xml version="1.0" encoding="UTF-8"?>
<svg id="Layer_1" xmlns="http://www.w3.org/2000/svg" version="1.1" viewBox="0 0 24 24">
  <!-- Generator: Adobe Illustrator 29.1.0, SVG Export Plug-In . SVG Version: 2.1.0 Build 142)  -->
  <defs>
    <style>
      .st0 {
        fill: #fff;
      }
    </style>
  </defs>
  <path class="st0" d="M12,0C5.4,0,0,5.4,0,12s5.4,12,12,12,12-5.4,12-12S18.6,0,12,0ZM16.4,16.9c-2.1.1-6.8.1-8.9,0-2.3-.2-2.5-1.3-2.6-4.9,0-3.6.3-4.7,2.6-4.9,2.1-.1,6.8-.1,8.9,0,2.3.2,2.5,1.3,2.6,4.9,0,3.6-.3,4.7-2.6,4.9ZM10,9.7l4.9,2.3-4.9,2.3v-4.7Z"/>
</svg>