<?xml version="1.0" encoding="UTF-8"?>
<svg id="Layer_1" xmlns="http://www.w3.org/2000/svg" version="1.1" viewBox="0 0 24 24">
  <!-- Generator: Adobe Illustrator 29.1.0, SVG Export Plug-In . SVG Version: 2.1.0 Build 142)  -->
  <defs>
    <style>
      .st0 {
        fill: #fff;
      }

      .st1 {
        fill: #073f69;
      }

      .st2 {
        fill: #c13644;
      }
    </style>
  </defs>
  <circle class="st0" cx="12" cy="12" r="12"/>
  <g>
    <path class="st1" d="M21.7,7.1c-2.3-3.6-6.3-5.5-10.6-4.5S3.9,6.9,4.8,10.9s4,4.3,6.3,2.3.6-.8,1-1.2c2.9-3.5,8.2-.3,6.8,4.1s-3.5,5.2-6.4,5.8C3.1,24-2.4,12.8,3,5.5s14.4-5.9,18.4.9.3.4.3.7Z"/>
    <path class="st2" d="M4.8,10.9c-.9-4,2.7-7.5,6.3-8.4s8.3.9,10.6,4.5,1.3,8.6-1,11.6-3,3.1-4.3,3.4-.2,0-.2,0c4-2.2,5.9-7.2,4.5-11.6s-6.6-7.3-11.3-5.7-4.9,3.2-4.6,6.2Z"/>
  </g>
</svg>