<?xml version="1.0" encoding="UTF-8"?>
<svg id="Layer_1" xmlns="http://www.w3.org/2000/svg" version="1.1" viewBox="0 0 24 24">
  <!-- Generator: Adobe Illustrator 29.1.0, SVG Export Plug-In . SVG Version: 2.1.0 Build 142)  -->
  <defs>
    <style>
      .st0 {
        fill: #fff;
      }
    </style>
  </defs>
  <path class="st0" d="M15.2,8.8v-.9c-3.9-1.6-6.4,0-6.4,0v.9c-1.8-1-5.6-.2-5.6-.2v-2c3.7-1,5.6.4,5.6.4v-1.2c2.9-1.5,6.3,0,6.3,0v1.2c2.7-1.4,5.6-.4,5.6-.4v2.2c-2.6-.8-5.6.2-5.6.2h0ZM20.8,11.8c-2.6-.8-5.6.2-5.6.2v-.9c-3.9-1.5-6.4,0-6.4,0v.9c-1.8-1-5.6-.2-5.6-.2v-2c3.7-1,5.6.4,5.6.4v-1.2c2.9-1.5,6.3,0,6.3,0v1.2c2.7-1.4,5.6-.4,5.6-.4v2.2h0ZM20.8,14.9c-2.6-.8-5.6.2-5.6.2v-.9c-3.9-1.6-6.4,0-6.4,0v.9c-1.8-1-5.6-.2-5.6-.2v-2c3.7-1,5.6.4,5.6.4v-1.2c2.9-1.5,6.3,0,6.3,0v1.2c2.7-1.4,5.6-.4,5.6-.4v2.2h0ZM20.8,18.1c-2.6-.8-5.6.2-5.6.2v-.9c-3.9-1.6-6.4,0-6.4,0v.9c-1.8-1-5.6-.2-5.6-.2v-2c3.7-1,5.6.4,5.6.4v-1.2c2.9-1.5,6.3,0,6.3,0v1.2c2.7-1.4,5.6-.4,5.6-.4v2.2h0ZM12,.2C5.5.2.2,5.5.2,12s5.3,11.8,11.8,11.8,11.8-5.3,11.8-11.8S18.5.2,12,.2Z"/>
</svg>