<?xml version="1.0" encoding="UTF-8"?>
<svg id="Layer_1" xmlns="http://www.w3.org/2000/svg" version="1.1" viewBox="0 0 24 24">
  <!-- Generator: Adobe Illustrator 29.1.0, SVG Export Plug-In . SVG Version: 2.1.0 Build 142)  -->
  <defs>
    <style>
      .st0 {
        fill: #006bb6;
      }
    </style>
  </defs>
  <path class="st0" d="M15.1,8.8v-.8c-3.8-1.5-6.2,0-6.2,0v.8c-1.8-1-5.4-.2-5.4-.2v-2c3.6-.9,5.5.4,5.5.4v-1.2c2.9-1.5,6.1,0,6.1,0v1.1c2.7-1.4,5.5-.3,5.5-.3v2.1c-2.5-.8-5.4.2-5.4.2ZM20.5,11.8c-2.5-.8-5.5.2-5.5.2v-.8c-3.8-1.5-6.2,0-6.2,0v.8c-1.8-1-5.4-.2-5.4-.2v-2c3.6-1,5.5.4,5.5.4v-1.2c2.9-1.5,6.1,0,6.1,0v1.1c2.7-1.4,5.5-.3,5.5-.3v2.1h0ZM20.5,14.9c-2.5-.8-5.5.2-5.5.2v-.8c-3.8-1.5-6.2,0-6.2,0v.8c-1.8-1-5.4-.2-5.4-.2v-2c3.6-.9,5.5.4,5.5.4v-1.2c2.9-1.5,6.1,0,6.1,0v1.1c2.7-1.4,5.5-.3,5.5-.3v2.1h0ZM20.5,18c-2.5-.8-5.5.2-5.5.2v-.8c-3.8-1.5-6.2,0-6.2,0v.8c-1.8-1-5.4-.2-5.4-.2v-2c3.6-.9,5.5.4,5.5.4v-1.2c2.9-1.5,6.1,0,6.1,0v1.1c2.7-1.4,5.5-.3,5.5-.3v2.1h0ZM12,.5C5.7.5.5,5.7.5,12s5.2,11.5,11.5,11.5,11.5-5.2,11.5-11.5S18.3.5,12,.5Z"/>
</svg>