<?xml version="1.0" encoding="utf-8"?>
<!-- Generator: Adobe Illustrator 27.0.0, SVG Export Plug-In . SVG Version: 6.00 Build 0)  -->
<svg version="1.1" id="Layer_1" xmlns="http://www.w3.org/2000/svg" xmlns:xlink="http://www.w3.org/1999/xlink" x="0px" y="0px"
	 viewBox="0 0 24 24" style="enable-background:new 0 0 24 24;" xml:space="preserve">
<style type="text/css">
	.st0{fill:#444444;}
</style>
<path class="st0" d="M4.3,9.8h15.4H4.3z M6.5,20.5v-4H2.8v-5.7C2.8,10.1,3,9.5,3.5,9C4,8.5,4.6,8.3,5.3,8.3h13.4
	c0.7,0,1.3,0.2,1.8,0.7c0.5,0.5,0.7,1.1,0.7,1.8v0.8c-0.2-0.1-0.5-0.2-0.7-0.3s-0.5-0.1-0.8-0.2v-0.3c0-0.3-0.1-0.5-0.3-0.7
	c-0.2-0.2-0.4-0.3-0.7-0.3H5.3c-0.3,0-0.5,0.1-0.7,0.3c-0.2,0.2-0.3,0.4-0.3,0.7V15h2.2v-1.8h8c-0.2,0.2-0.4,0.5-0.5,0.7
	c-0.2,0.2-0.3,0.5-0.4,0.8H8V19h5.3c0.1,0.3,0.2,0.5,0.3,0.8c0.1,0.2,0.3,0.5,0.4,0.7H6.5z M18,19.8l-2.5-2.5l1.1-1.1l1.4,1.4
	l3.5-3.5l1.1,1L18,19.8z M16,8.3v-3H8v3H6.5V3.8h11v4.5H16z"/>
</svg>
