<?xml version="1.0" encoding="UTF-8"?>
<svg xmlns="http://www.w3.org/2000/svg" version="1.1" viewBox="0 0 500 500">
  <defs>
    <style>
      .cls-1 {
        fill: #0060a8;
      }

      .cls-2 {
        fill: #211915;
      }
    </style>
  </defs>
  <!-- Generator: Adobe Illustrator 28.7.1, SVG Export Plug-In . SVG Version: 1.2.0 Build 142)  -->
  <g>
    <g id="Layer_1">
      <g>
        <path class="cls-1" d="M200.71,244.6v-1.37c-6.11-2.43-10,.02-10,.02v1.37c-2.85-1.57-8.71-.39-8.71-.39v-3.19c5.75-1.55,8.8.6,8.8.6v-1.92c4.61-2.34,9.81-.05,9.81-.05v1.83c4.29-2.19,8.85-.55,8.85-.55v3.37c-4.01-1.28-8.75.28-8.75.28ZM209.46,249.29c-4.01-1.28-8.75.27-8.75.27v-1.37c-6.11-2.43-10,.03-10,.03v1.37c-2.85-1.57-8.71-.39-8.71-.39v-3.19c5.75-1.55,8.8.59,8.8.59v-1.92c4.61-2.34,9.81-.05,9.81-.05v1.83c4.29-2.19,8.85-.55,8.85-.55v3.37ZM209.46,254.26c-4.01-1.28-8.75.27-8.75.27v-1.37c-6.11-2.43-10,.02-10,.02v1.37c-2.85-1.57-8.71-.39-8.71-.39v-3.2c5.75-1.55,8.8.6,8.8.6v-1.92c4.61-2.34,9.81-.05,9.81-.05v1.82c4.29-2.19,8.85-.55,8.85-.55v3.37ZM209.46,259.23c-4.01-1.28-8.75.28-8.75.28v-1.37c-6.11-2.43-10,.02-10,.02v1.37c-2.85-1.57-8.71-.39-8.71-.39v-3.19c5.75-1.55,8.8.59,8.8.59v-1.92c4.61-2.34,9.81-.05,9.81-.05v1.83c4.29-2.19,8.85-.55,8.85-.55v3.37ZM195.73,231.2c-10.19,0-18.45,8.26-18.45,18.45s8.26,18.46,18.45,18.46,18.46-8.26,18.46-18.46-8.26-18.45-18.46-18.45Z"/>
        <g>
          <path class="cls-2" d="M229.3,240.07l-.42-.74s-1.15-1.68,1.47-2.21c0,0,2.21.11,1.89,3.16,0,0,.32.42,1.37.1,0,0,5.05-1.26,5.05.84,0,0,1.26,1.89-5.15,2.31,0,0-9.04.31-9.88-.74,0,0-1.26-1.26,1.26-2.42,0,0,3.78.21,4.42-.32Z"/>
          <path class="cls-2" d="M242.65,245.22s.53-7.36-1.37-7.57c0,0-1.47.11-1.68,1.89,0,0,.32,2.84.32,3.68,0,0-.32,8.52-.94,8.83-.63.31.32,3.15,1.47,2.84,0,0,2.42,1.26,2.1-3.99,0,0-.32-2.74.1-2.95.42-.21,2.42.11,3.57.11s1.79-1.89-.42-2.42l-1.68-.42h-1.47Z"/>
          <path class="cls-2" d="M227.1,257.31s.21.42.52.42,14.72-.42,15.87,1.05c1.15,1.47.1,2.21-1.26,2.63-1.37.42-6.2-1.58-13.77-.84,0,0-1.89-.11-2.84,1.37,0,0-2.84.21-1.47-2.21,0,0,1.05-2.84.63-3.68,0,0,.84-1.68,2.31-.42v1.68Z"/>
          <path class="cls-2" d="M268.78,243.96s0-1.79-.53-2.1c-.53-.32-4.03-.95-6.1-.95-1.47,0-2.36-.02-4.52-.1-3.38-.12-6.83,0-6.83,0,0,0,0-2.1,3.89-2.73l14.61.21s2.63,1.57,2.31,3.78c0,0,.74,2-1.89,2.31l-.94-.42Z"/>
          <path class="cls-2" d="M250.07,247.11s-.53-1.68,5.47-2l11.46-.32s4.62-.11,4.62,1.58c0,0,.42,1.05-1.26,1.26h-7.04s-1.16.63-.74,1.89c0,0,.42,1.89-1.58,2,0,0-1.68-.1-.84-2.41,0,0,.42-1.58-2.42-.95,0,0-3.26-.32-4.2-.1-.95.21-2.73,1.05-3.36-.42-.63-1.47-.1-.53-.1-.53Z"/>
          <path class="cls-2" d="M269.52,262.14s2.73-1.37,1.05-7.57c-.3-1.11-.82-1.08-1.15-1.78,0,0-6.62-.84-12.4-.84,0,0-7.57.32-6.73,2.84,0,0-.21,1.05,3.99.21,0,0,12.51-.94,13.56.53,1.05,1.47-.32,4.84-.32,4.84,0,0-.31,1.37.74,1.79,1.05.42,1.26,0,1.26,0Z"/>
          <path class="cls-2" d="M292.85,241.75s-11.04-.84-15.14-.42c0,0-2.42-1.68,1.16-3.26l16.19.63s1.58,1.47,1.37,4.1c-.21,2.63,0,7.04,0,7.04,0,0-1.26,2.63-3.15,1.47,0,0,.84-9.46-.42-9.56Z"/>
          <path class="cls-2" d="M283.29,245.33s-1.68-.53-2.21,1.68l-.32,7.04s-.53.53-1.26.53-3.47.21-3.89,2.21c-.42,2,2,.63,2.63.42.63-.21,13.03-1.05,16.19.32,0,0,2.73.94,3.78-.42,0,0,.74-2.74-4.52-2.52,0,0-3.05.53-4.73-.95,0,0,1.16-8.93-.84-8.83,0,0-1.79-.21-1.58,2.52.21,2.73-.21,6.31-.21,6.31,0,0-1.16,2.1-2.84-.21,0,0,.74-7.88-.21-8.09Z"/>
          <path class="cls-2" d="M309.14,239.55s1.05.21,1.26-1.79c0,0,2.1-1.89,3.26-.32,0,0,.21,2.95,2.94,2.21,0,0,3.78-.74,5.05-.42,0,0,.84,2.52-1.79,2.63l-5.46.63,4.94,3.16s.84,1.37-.63,2l-2.21-.63-4.62-2.63-4.63,3.47s-3.05.74-3.05-.63l4.84-4.73-.1-.52s-6.62.95-6.94.21c-.31-.74-.31-.21-.31-.21,0,0,0-2.21,3.04-2l4.42-.42Z"/>
          <path class="cls-2" d="M310.83,248.58s.31-2.63,1.79-2.73l.52,2.1s.63,1.26,1.37,1.05c.74-.21,7.88-.21,8.09.42.21.63.63,1.58-.63,2.2l-9.88-.31s-7.25-.11-7.78.31c-.53.42-3.47,1.37-2.73-1.47,0,0,.21-.94,7.36-1.26l1.89-.32Z"/>
          <path class="cls-2" d="M312.71,252.05h0Z"/>
          <path class="cls-2" d="M313.03,259.62c-2.84.1-2.94-2.42-2.94-2.42-.21-2.73,3.05-2.42,3.05-2.42,1.89.1,2,2,2,2,.32,2.31-2.1,2.83-2.1,2.83ZM312.71,252.05s-4.62-.53-5.67,4.73c0,0,.42,3.36,2,4.41,0,0,3.36,3.15,6.52-.53,0,0,1.57-.95,1.79-4.1,0,0-1.05-4.73-4.62-4.52Z"/>
          <path class="cls-2" d="M230.25,251.95c-2.31.11-2.52-2.21-2.52-2.21.63-3.04,2.83-2.63,2.83-2.63,2.52-.42,2.94,1.79,2.94,1.79-1.05,4-3.26,3.05-3.26,3.05ZM230.14,243.64s-4.94,2.1-4.41,6.41c0,0,.21,4.52,4.62,4.1,0,0,4.73.42,5.36-5.15,0,0-.11-5.57-5.57-5.36Z"/>
        </g>
      </g>
    </g>
  </g>
</svg>